<?xml version="1.0" encoding="utf-8"?>
<!-- Generator: Adobe Illustrator 19.2.0, SVG Export Plug-In . SVG Version: 6.00 Build 0)  -->
<!DOCTYPE svg PUBLIC "-//W3C//DTD SVG 1.1//EN" "http://www.w3.org/Graphics/SVG/1.1/DTD/svg11.dtd">
<svg version="1.1" id="Layer_3" xmlns="http://www.w3.org/2000/svg" xmlns:xlink="http://www.w3.org/1999/xlink" x="0px" y="0px"
	 viewBox="0 0 135.4 139.9" style="enable-background:new 0 0 135.4 139.9;" xml:space="preserve">
<style type="text/css">
	.st0{display:none;fill:url(#SVGID_1_);}
	.st1{opacity:0.2;}
	.st2{clip-path:url(#SVGID_3_);}
	.st3{fill:#000529;}
	.st4{fill:#000628;}
	.st5{fill:#000727;}
	.st6{fill:#000826;}
	.st7{fill:#000824;}
	.st8{fill:#000923;}
	.st9{fill:#000A22;}
	.st10{fill:#FFFFFF;}
	.st11{clip-path:url(#SVGID_5_);}
	.st12{clip-path:url(#SVGID_7_);}
	.st13{opacity:0.59;}
	.st14{opacity:6.000000e-02;}
	.st15{clip-path:url(#SVGID_9_);}
</style>
<title>bolt</title>
<linearGradient id="SVGID_1_" gradientUnits="userSpaceOnUse" x1="604.375" y1="-473.06" x2="604.375" y2="359.25" gradientTransform="matrix(1 0 0 -1 0 142)">
	<stop  offset="0.32" style="stop-color:#000529"/>
	<stop  offset="1" style="stop-color:#000A22"/>
</linearGradient>
<rect x="-124.5" y="-217.2" class="st0" width="1457.8" height="832.3"/>
<g class="st1">
	<g>
		<defs>
			<path id="SVGID_2_" d="M28.5,101.2L12.4,74.8c-0.6-1-0.7-2.3-0.2-3.4l21.8-45.6c0.6-1.2,1.7-1.9,3-2l48.6-3.2
				c1.2-0.1,2.4,0.4,3.3,1.3l21.5,24.3L54.9,51c-0.8,0.1-1.4,0.5-1.8,1.2L28.5,101.2z"/>
		</defs>
		<clipPath id="SVGID_3_">
			<use xlink:href="#SVGID_2_"  style="overflow:visible;"/>
		</clipPath>
		<g class="st2">
			<rect x="11.4" y="19.9" class="st3" width="31" height="81"/>
			<rect x="42.4" y="19.9" class="st3" width="10" height="81"/>
			<rect x="52.4" y="19.9" class="st4" width="11" height="81"/>
			<rect x="63.4" y="19.9" class="st5" width="8" height="81"/>
			<rect x="71.4" y="19.9" class="st6" width="11" height="81"/>
			<rect x="82.4" y="19.9" class="st7" width="8" height="81"/>
			<rect x="90.4" y="19.9" class="st8" width="11" height="81"/>
			<rect x="101.4" y="19.9" class="st9" width="9" height="81"/>
		</g>
	</g>
	<path class="st10" d="M28.5,102.3L12,75c-0.7-1.2-0.8-2.7-0.2-3.9l21.8-45.6c0.6-1.3,1.9-2.2,3.4-2.3L85.7,20
		c1.4-0.1,2.7,0.5,3.7,1.5l22.2,25.1l-56.6,5c-0.6,0.1-1.1,0.4-1.4,0.9L28.5,102.3z M86,21h-0.3l-48.6,3.2c-1.1,0.1-2.1,0.7-2.5,1.7
		L12.8,71.5c-0.5,1-0.4,2.1,0.1,3l15.6,25.7L52.6,52c0.4-0.8,1.3-1.4,2.2-1.5l54.5-4.8L88.6,22.1C87.9,21.4,87,21,86,21z"/>
	<g>
		<defs>
			<path id="SVGID_4_" d="M54.8,51l53.8-5.4c1.2-0.1,2.3,0.5,2.7,1.6l9.2,22.6c0.3,0.7,0.3,1.5-0.1,2.2l-21.8,40
				c-0.4,0.7-1.1,1.2-1.9,1.3l-49.6,7c-0.9,0.1-1.7-0.2-2.3-0.9l-16-18.1c-0.7-0.8-0.9-2-0.4-3l24.6-46.3
				C53.4,51.5,54.1,51.1,54.8,51z"/>
		</defs>
		<clipPath id="SVGID_5_">
			<use xlink:href="#SVGID_4_"  style="overflow:visible;"/>
		</clipPath>
		<g class="st11">
			<rect x="27.4" y="45.9" class="st3" width="30" height="74"/>
			<rect x="57.4" y="45.9" class="st3" width="11" height="74"/>
			<rect x="68.4" y="45.9" class="st4" width="7" height="74"/>
			<rect x="75.4" y="45.9" class="st5" width="8" height="74"/>
			<rect x="83.4" y="45.9" class="st6" width="11" height="74"/>
			<rect x="94.4" y="45.9" class="st7" width="8" height="74"/>
			<rect x="102.4" y="45.9" class="st8" width="8" height="74"/>
			<rect x="110.4" y="45.9" class="st9" width="11" height="74"/>
		</g>
	</g>
	<path class="st10" d="M46.7,121c-0.9,0-1.7-0.4-2.3-1l-16-18.1c-0.9-1-1-2.4-0.4-3.6l24.6-46.4c0.4-0.8,1.2-1.4,2.2-1.5l53.8-5.4
		c1.4-0.1,2.7,0.6,3.2,1.9l9.2,22.7c0.4,0.9,0.3,1.9-0.2,2.7l-21.8,40c-0.5,0.9-1.3,1.5-2.3,1.7l-49.6,7C47,121,46.9,121,46.7,121z
		 M54.8,51.5c-0.6,0.1-1.1,0.4-1.3,0.9L28.9,98.9c-0.4,0.8-0.3,1.7,0.3,2.4l16,18.1c0.5,0.5,1.1,0.8,1.8,0.7l49.6-7
		c0.7-0.1,1.2-0.5,1.6-1.1l21.8-40c0.3-0.6,0.3-1.2,0.1-1.8l-9.2-22.6c-0.4-0.9-1.2-1.4-2.2-1.3L54.8,51.5z"/>
	<g>
		<defs>
			<path id="SVGID_6_" d="M66,67.5c10.3-7.3,23.7-8.7,35.3-3.7c0.6,0.3,1,0.7,1.3,1.2c3,5.1,14.1,35.8-2.9,49.8
				c-15.8,13.1-46.5-5.8-52.6-16.6c-0.4-0.7-0.5-1.5-0.4-2.2C47.5,92.5,48.8,79.3,66,67.5z"/>
		</defs>
		<clipPath id="SVGID_7_">
			<use xlink:href="#SVGID_6_"  style="overflow:visible;"/>
		</clipPath>
		<g class="st12">
			<rect x="45.4" y="57.9" class="st3" width="23" height="71"/>
			<rect x="68.4" y="57.9" class="st3" width="4" height="71"/>
			<rect x="72.4" y="57.9" class="st4" width="6" height="71"/>
			<rect x="78.4" y="57.9" class="st5" width="5" height="71"/>
			<rect x="83.4" y="57.9" class="st6" width="7" height="71"/>
			<rect x="90.4" y="57.9" class="st7" width="5" height="71"/>
			<rect x="95.4" y="57.9" class="st8" width="7" height="71"/>
			<rect x="102.4" y="57.9" class="st9" width="7" height="71"/>
			<rect x="109.4" y="57.9" class="st9" width="8" height="71"/>
		</g>
	</g>
	<path class="st10" d="M86.3,119.8c-2.1,0-4.1-0.2-6.2-0.6c-13.8-2.6-29-13-33.4-20.7c-0.5-0.8-0.6-1.7-0.4-2.6
		c0-0.2,0.1-0.5,0.1-0.8c0.8-4.6,2.9-16.9,19.3-28l0.3,0.4l-0.3-0.4c10.5-7.3,24-8.7,35.8-3.8c0.7,0.3,1.2,0.8,1.6,1.5
		c1.5,2.5,5,11.5,6.1,21.8c0.9,8.9,0.1,21.1-9.1,28.7C96.2,118.3,91.3,119.9,86.3,119.8z M87,61.4c-7.4,0-14.6,2.3-20.7,6.5
		c-16,10.9-18.1,22.8-18.8,27.4c0,0.3-0.1,0.6-0.1,0.8c-0.1,0.7,0,1.3,0.3,1.9c3.8,6.6,18,17.5,32.7,20.2c7.9,1.5,14.4,0.2,19.1-3.7
		c17-14,5-45.2,2.8-49.1c-0.3-0.4-0.6-0.8-1.1-1C96.6,62.4,91.8,61.4,87,61.4z"/>
	<g class="st13">
		<path class="st10" d="M36.7,26.6l14.9,22.6c0.5-0.7,1.2-1.1,2-1.1c-1.5-0.7-2.8-1.8-3.8-3.1C47.6,42.4,36.7,26.6,36.7,26.6z"/>
	</g>
	<g class="st13">
		<path class="st10" d="M48.8,97.3c0,0,0.2-7.9,7.8-18c0,0-5.3,11.2-4.7,21.7L48.8,97.3z"/>
	</g>
	<g class="st14">
		<path class="st10" d="M76.1,62.6c0,0,17.3-4.7,26.6,2.5C102.7,65.1,95.9,56.4,76.1,62.6z"/>
	</g>
	<g class="st14">
		<path class="st10" d="M99.8,47.8l8.9-0.9c0.8-0.2,1.7,0.1,2.1,0.9c0.8,1.3,8.9,21,8.9,21s-9-17.9-9.9-19S107.7,47.6,99.8,47.8z"/>
	</g>
	<g>
		<defs>
			<path id="SVGID_8_" d="M102.7,65.1c3,5.1,16.7,34.8-1.8,51.5c-16.9,15.2-47.5-7.6-53.7-18.3"/>
		</defs>
		<clipPath id="SVGID_9_">
			<use xlink:href="#SVGID_8_"  style="overflow:visible;"/>
		</clipPath>
		<g class="st15">
			<rect x="45.4" y="63.9" class="st3" width="23" height="69"/>
			<rect x="68.4" y="63.9" class="st3" width="4" height="69"/>
			<rect x="72.4" y="63.9" class="st4" width="8" height="69"/>
			<rect x="80.4" y="63.9" class="st5" width="7" height="69"/>
			<rect x="87.4" y="63.9" class="st6" width="4" height="69"/>
			<rect x="91.4" y="63.9" class="st7" width="7" height="69"/>
			<rect x="98.4" y="63.9" class="st8" width="6" height="69"/>
			<rect x="104.4" y="63.9" class="st9" width="6" height="69"/>
			<rect x="110.4" y="63.9" class="st9" width="10" height="69"/>
		</g>
	</g>
	<path class="st10" d="M87,122.2c-1.6,0-3.2-0.1-4.8-0.4c-15-2.4-31-15.4-35.5-23.3l0.9-0.5c4.3,7.5,20.3,20.4,34.8,22.8
		c7.3,1.2,13.4-0.4,18.1-4.6c7.7-6.9,10.7-16.9,8.8-29.6c-1.1-7.4-3.5-14.6-7.1-21.2l0.9-0.5c3.6,6.7,6,14,7.2,21.6
		c1.9,12.9-1.3,23.5-9.1,30.6C97.3,120.4,92.2,122.3,87,122.2z"/>
</g>
</svg>
