<?xml version="1.0" encoding="utf-8"?>
<!-- Generator: Adobe Illustrator 19.2.0, SVG Export Plug-In . SVG Version: 6.00 Build 0)  -->
<!DOCTYPE svg PUBLIC "-//W3C//DTD SVG 1.1//EN" "http://www.w3.org/Graphics/SVG/1.1/DTD/svg11.dtd">
<svg version="1.1" id="Layer_3" xmlns="http://www.w3.org/2000/svg" xmlns:xlink="http://www.w3.org/1999/xlink" x="0px" y="0px"
	 viewBox="0 0 90 80.7" style="enable-background:new 0 0 90 80.7;" xml:space="preserve">
<style type="text/css">
	.st0{display:none;fill:url(#SVGID_1_);}
	.st1{opacity:0.2;}
	.st2{clip-path:url(#SVGID_3_);}
	.st3{fill:#000529;}
	.st4{fill:#000628;}
	.st5{fill:#000727;}
	.st6{fill:#000826;}
	.st7{fill:#000824;}
	.st8{fill:#000923;}
	.st9{fill:#000A22;}
	.st10{fill:#FFFFFF;}
	.st11{clip-path:url(#SVGID_5_);}
	.st12{clip-path:url(#SVGID_7_);}
	.st13{opacity:0.59;}
</style>
<title>bolt</title>
<linearGradient id="SVGID_1_" gradientUnits="userSpaceOnUse" x1="-60.335" y1="-723.55" x2="-60.335" y2="108.76" gradientTransform="matrix(1 0 0 -1 0 82)">
	<stop  offset="0.32" style="stop-color:#000529"/>
	<stop  offset="1" style="stop-color:#000A22"/>
</linearGradient>
<rect x="-789.2" y="-26.8" class="st0" width="1457.8" height="832.3"/>
<g class="st1">
	<g>
		<defs>
			<path id="SVGID_2_" d="M17.3,55.7l13.2,14.5c1.1,1.3,3,1.8,4.6,1.3l14.7-3.7c0.6-0.2,1.1-0.5,1.6-0.9l21.2-19.4
				c0.6-0.5,1-1.2,1.2-1.9l5.4-15.9c0.5-1.5,0.1-3.2-1-4.4l-13.7-13L17.3,55.7z"/>
		</defs>
		<clipPath id="SVGID_3_">
			<use xlink:href="#SVGID_2_"  style="overflow:visible;"/>
		</clipPath>
		<g class="st2">
			
				<rect x="15.6" y="25.4" transform="matrix(0.952 -0.306 0.306 0.952 -14.0492 10.4485)" class="st3" width="21.4" height="49.3"/>
			<rect x="36.3" y="20.9" transform="matrix(0.952 -0.306 0.306 0.952 -12.0301 14.4552)" class="st3" width="7.5" height="49.3"/>
			<rect x="43.5" y="18.8" transform="matrix(0.952 -0.306 0.306 0.952 -11.0584 16.3807)" class="st4" width="6.4" height="49.3"/>
			<rect x="49.6" y="16.8" transform="matrix(0.952 -0.306 0.306 0.952 -10.1636 18.1644)" class="st5" width="6.4" height="49.3"/>
			<rect x="55.7" y="14.7" transform="matrix(0.952 -0.306 0.306 0.952 -9.1919 20.09)" class="st6" width="7.5" height="49.3"/>
			<rect x="62.9" y="12.6" transform="matrix(0.952 -0.306 0.306 0.952 -8.2216 22.0197)" class="st7" width="6.4" height="49.3"/>
			<rect x="69.1" y="10.8" transform="matrix(0.952 -0.306 0.306 0.952 -7.4007 23.6515)" class="st8" width="5.4" height="49.3"/>
			<rect x="74.1" y="9" transform="matrix(0.952 -0.306 0.306 0.952 -6.5785 25.2792)" class="st9" width="6.4" height="49.3"/>
			<rect x="80.4" y="7.8" transform="matrix(0.952 -0.306 0.306 0.952 -6.0549 26.3184)" class="st9" width="1.1" height="49.3"/>
		</g>
	</g>
	<path class="st10" d="M50,68l-14.7,3.8l0,0c-1.8,0.6-3.7,0-4.9-1.4L16.9,55.6l0.2-0.2l47.4-43.6L78.5,25c1.2,1.2,1.6,3,1.1,4.7
		l-5.4,16c-0.3,0.8-0.7,1.5-1.3,2L51.7,67C51.2,67.5,50.6,67.8,50,68z M17.8,55.7l13,14.3c1.1,1.2,2.8,1.7,4.3,1.2l14.7-3.7
		c0.5-0.2,1.1-0.5,1.5-0.9l21.2-19.4c0.5-0.5,0.9-1.1,1.1-1.7L79,29.5c0.5-1.4,0.1-2.9-0.9-4L64.5,12.7L17.8,55.7z"/>
	<g>
		<defs>
			<path id="SVGID_4_" d="M19.2,55.9l17.3-5.6c0.9-0.3,1.8-0.8,2.5-1.4l18.9-17.4c0.8-0.8,1.5-1.7,1.8-2.8l4.7-14.4
				c0.2-0.7-0.2-1.5-0.9-1.8c-0.3-0.1-0.7-0.1-1,0l-18.8,7.2c-0.2,0.1-0.4,0.2-0.5,0.3L25.2,38.5c-0.1,0.1-0.2,0.2-0.3,0.4l-7.4,15
				c-0.4,0.7-0.1,1.6,0.6,1.9C18.4,56,18.8,56,19.2,55.9z"/>
		</defs>
		<clipPath id="SVGID_5_">
			<use xlink:href="#SVGID_4_"  style="overflow:visible;"/>
		</clipPath>
		<g class="st11">
			<rect x="12.4" y="26.2" transform="matrix(0.952 -0.306 0.306 0.952 -11.2318 8.6594)" class="st3" width="19.3" height="27.9"/>
			
				<rect x="31.1" y="22.2" transform="matrix(0.9507 -0.3102 0.3102 0.9507 -9.5525 12.2763)" class="st3" width="5.4" height="27.9"/>
			<rect x="36.2" y="20.8" transform="matrix(0.952 -0.306 0.306 0.952 -8.7644 13.5507)" class="st4" width="5.4" height="27.9"/>
			<rect x="41.2" y="19" transform="matrix(0.952 -0.306 0.306 0.952 -7.9431 15.1856)" class="st5" width="6.4" height="27.9"/>
			<rect x="47.4" y="17.2" transform="matrix(0.952 -0.306 0.306 0.952 -7.1253 16.8179)" class="st6" width="5.4" height="27.9"/>
			
				<rect x="52.5" y="15.4" transform="matrix(0.9507 -0.3102 0.3102 0.9507 -6.4142 18.4096)" class="st7" width="4.3" height="27.9"/>
			<rect x="56.6" y="14.1" transform="matrix(0.952 -0.306 0.306 0.952 -5.7032 19.6348)" class="st8" width="6.4" height="27.9"/>
			<rect x="62.7" y="12" transform="matrix(0.9507 -0.3102 0.3102 0.9507 -4.805 21.5505)" class="st9" width="5.4" height="27.9"/>
			
				<rect x="67.9" y="11" transform="matrix(0.9507 -0.3102 0.3102 0.9507 -4.3466 22.4502)" class="st9" width="1.1" height="27.9"/>
		</g>
	</g>
	<path class="st10" d="M36.6,50.6l-17.3,5.6c-0.9,0.3-1.9-0.2-2.2-1.1c-0.1-0.4-0.1-0.9,0.1-1.3l7.4-15c0.1-0.2,0.2-0.3,0.4-0.5
		l18.1-18.4c0.2-0.2,0.4-0.3,0.6-0.4l18.8-7.2c0.9-0.3,1.9,0.1,2.2,1c0.1,0.4,0.2,0.8,0,1.2l-4.7,14.4c-0.4,1.1-1,2.2-1.9,3
		l-19,17.3C38.5,49.8,37.6,50.3,36.6,50.6z M62.8,12.8L62.8,12.8L43.9,20c-0.1,0.1-0.3,0.1-0.4,0.3L25.4,38.7
		c-0.1,0.1-0.1,0.2-0.2,0.3l-7.4,15c-0.3,0.6,0,1.2,0.5,1.5c0.3,0.1,0.5,0.1,0.8,0.1L36.4,50c0.9-0.3,1.7-0.7,2.3-1.4l18.9-17.4
		c0.8-0.7,1.4-1.7,1.7-2.7l4.7-14.4c0.2-0.6-0.1-1.2-0.7-1.4C63.2,12.7,63,12.7,62.8,12.8z"/>
	<g>
		<defs>
			<path id="SVGID_6_" d="M24.2,16.5C34,7.1,47,13.2,54.9,19.9c-1.8,5.9-5.2,11.3-9.7,15.5c-7.6,7.1-18.4,10.8-18.4,10.8
				S13.1,27.2,24.2,16.5z"/>
		</defs>
		<clipPath id="SVGID_7_">
			<use xlink:href="#SVGID_6_"  style="overflow:visible;"/>
		</clipPath>
		<g class="st12">
			<rect x="14.4" y="11.5" transform="matrix(0.952 -0.306 0.306 0.952 -7.8161 8.4294)" class="st3" width="17.2" height="35.4"/>
			<rect x="31.1" y="8.5" transform="matrix(0.952 -0.306 0.306 0.952 -6.4709 11.0949)" class="st3" width="2.1" height="35.4"/>
			<rect x="33.1" y="7.5" transform="matrix(0.952 -0.306 0.306 0.952 -6.0235 11.9867)" class="st4" width="4.3" height="35.4"/>
			<rect x="37.2" y="6.4" transform="matrix(0.952 -0.306 0.306 0.952 -5.4975 13.0241)" class="st5" width="3.2" height="35.4"/>
			<rect x="40.2" y="5.2" transform="matrix(0.952 -0.306 0.306 0.952 -4.9746 14.062)" class="st6" width="4.3" height="35.4"/>
			<rect x="44.3" y="4.1" transform="matrix(0.952 -0.306 0.306 0.952 -4.4526 15.1002)" class="st7" width="3.2" height="35.4"/>
			<rect x="47.4" y="2.9" transform="matrix(0.952 -0.306 0.306 0.952 -3.9296 16.138)" class="st8" width="4.3" height="35.4"/>
			<rect x="51.5" y="1.8" transform="matrix(0.952 -0.306 0.306 0.952 -3.4095 17.1773)" class="st9" width="3.2" height="35.4"/>
			<path class="st9" d="M59.9,35.5L49.2,2.2L59.9,35.5z"/>
		</g>
	</g>
	<path class="st10" d="M26.7,46.5l-0.1-0.2C26.4,46.2,12.9,27,24,16.3l0.2,0.2L24,16.3c4.5-4.3,10-5.8,16.3-4.4s12,5.5,14.8,7.8
		l0.2,0.1V20c-1.8,6-5.2,11.4-9.8,15.7C37.8,42.7,27,46.4,26.9,46.5L26.7,46.5z M31,12.8c-2.5,0.8-4.7,2.1-6.6,3.9
		c-10.2,9.8,1.1,27.1,2.5,29.1c1.6-0.6,11.2-4.2,18.1-10.6c4.5-4.1,7.8-9.4,9.6-15.2C44.3,11.4,36.3,11.1,31,12.8z"/>
	<g class="st13">
		<path class="st10" d="M39,51c0.2,0.7,11.3,14.8,11.3,14.8s0.4,0.6,1.2-0.2c1.5-1.4,3.8-3.2,3.8-3.2s-3.2,2.1-4.8,1.2
			C47.5,61.7,39,51,39,51z"/>
	</g>
	<g class="st13">
		<path class="st10" d="M60.4,31.1l12.2,13.6c0,0,0.7,0.6-0.2,1.7s-1.2,1-1.2,1S70.7,43.1,60.4,31.1z"/>
	</g>
	<g class="st13">
		<path class="st10" d="M21.5,25.7c0,0,0.2-4.5,3.1-7.4s4.8-3.9,6.4-4.5s-3.1,2.8-4.8,5.1C24.3,21.7,24.1,21.4,21.5,25.7z"/>
	</g>
</g>
</svg>
