<svg viewBox="0 0 51 57" version="1.1" xmlns="http://www.w3.org/2000/svg" xmlns:xlink="http://www.w3.org/1999/xlink">
    <g id="Page-1" stroke="none" stroke-width="1" fill="none" fill-rule="evenodd">
        <path d="M40.0562,39.2325 C38.1352,40.1385 35.8432,39.3185 34.9352,37.3975 L31.5532,30.2345 L28.7312,37.6215 C28.1482,39.0825 26.7362,40.3415 25.1642,40.3415 L25.1572,40.3415 C23.5872,40.3415 22.1742,39.0945 21.5892,37.6375 L18.7432,30.4075 L15.2132,37.6525 C14.5502,39.0275 13.1762,39.7555 11.7472,39.7555 C11.1852,39.7555 10.6162,39.6335 10.0772,39.3745 C8.1632,38.4495 7.3612,36.1495 8.2832,34.2345 L15.5972,19.0685 C16.2592,17.6955 17.6922,16.8245 19.1912,16.8955 C20.7132,16.9445 22.0632,17.8915 22.6302,19.3045 L25.1392,25.5445 L27.6772,19.1645 C28.2452,17.7395 29.6002,16.7895 31.1312,16.7415 C32.6632,16.6775 34.0752,17.5585 34.7292,18.9425 L41.8912,34.1085 C42.7972,36.0305 41.9752,38.3255 40.0562,39.2325 M48.5082,13.0995 L26.7332,0.5225 C25.7102,-0.0685 24.4502,-0.0685 23.4282,0.5225 L1.6532,13.0995 C0.6302,13.6905 0.0002,14.7815 0.0002,15.9625 L0.0002,41.1165 C0.0002,42.2985 0.6302,43.3895 1.6532,43.9805 L23.4282,56.5565 C23.9392,56.8525 24.5092,56.9995 25.0802,56.9995 C25.6512,56.9995 26.2212,56.8525 26.7332,56.5565 L48.5082,43.9805 C49.5312,43.3895 50.1612,42.2985 50.1612,41.1165 L50.1612,15.9625 C50.1612,14.7815 49.5312,13.6905 48.5082,13.0995" id="Fill-1" fill="#004B4E"></path>
    </g>
</svg>
