<svg xmlns="http://www.w3.org/2000/svg" xmlns:xlink="http://www.w3.org/1999/xlink" viewBox="0 0 743.7 743.7" style="enable-background:new 0 0 743.7 743.7;" xml:space="preserve">
<style type="text/css">.st0{fill:#004B4E;}</style>
<g>
	<path class="st0" d="M371.9,743.7C166.8,743.7,0,576.9,0,371.9S166.8,0,371.9,0c205.1,0,371.9,166.8,371.9,371.9
		S576.9,743.7,371.9,743.7z M371.9,53.9c-175.3,0-318,142.6-318,318s142.6,318,318,318s318-142.6,318-318S547.2,53.9,371.9,53.9z"/>
</g>
<g>
	<path class="st0" d="M470.8,481c-6.9,0-13.8-2.6-19.1-7.9L253.8,275.2c-10.5-10.5-10.5-27.6,0-38.1c10.5-10.5,27.6-10.5,38.1,0
		L489.9,435c10.5,10.5,10.5,27.6,0,38.1C484.6,478.4,477.7,481,470.8,481z"/>
</g>
<g>
	<path class="st0" d="M272.9,481c-6.9,0-13.8-2.6-19.1-7.9c-10.5-10.5-10.5-27.6,0-38.1l197.9-197.9c10.5-10.5,27.6-10.5,38.1,0
		s10.5,27.6,0,38.1L292,473.1C286.7,478.4,279.8,481,272.9,481z"/>
</g>
</svg>
