<svg xmlns="http://www.w3.org/2000/svg" xmlns:xlink="http://www.w3.org/1999/xlink" x="0px" y="0px"
	 viewBox="0 0 743.7 743.7" style="enable-background:new 0 0 743.7 743.7;" xml:space="preserve">
<style type="text/css">
	.st0{fill:#346F72;}
</style>
<g>
	<path class="st0" d="M371.8,744.1C166.8,744.1-0.1,577.2-0.1,372.2C-0.1,167.1,166.8,0.3,371.8,0.3
		c205.1,0,371.9,166.8,371.9,371.9C743.7,577.2,576.9,744.1,371.8,744.1z M371.8,54.2c-175.3,0-318,142.6-318,318s142.7,318,318,318
		s318-142.7,318-318S547.2,54.2,371.8,54.2z"/>
</g>
<g>
	<g>
		<path class="st0" d="M349.2,343.6l1.1-1.2c29.1-1.2,40.5-8.8,40.5-21.1v-0.5c0-10.4-7.9-16.4-21.3-16.4c-12.9,0-24.1,5.3-34.7,16
			l-21.3-23.4c13.4-14.8,31.5-25,56.7-25c33.3,0,56,17.1,56,47.9v0.5c0,29.4-20.4,41.4-45.6,46.5l-2.5,14.1h-23.6L349.2,343.6z
			 M346.9,399.1h37.5v37h-37.5V399.1z"/>
	</g>
</g>
</svg>
