<?xml version="1.0" encoding="UTF-8" standalone="no"?>
<svg width="1439px" height="231px" viewBox="0 0 1439 231" version="1.1" xmlns="http://www.w3.org/2000/svg" xmlns:xlink="http://www.w3.org/1999/xlink" xmlns:sketch="http://www.bohemiancoding.com/sketch/ns">
    <!-- Generator: Sketch 3.4.4 (17249) - http://www.bohemiancoding.com/sketch -->
    <title>Group</title>
    <desc>Created with Sketch.</desc>
    <defs>
        <linearGradient x1="50%" y1="0%" x2="50%" y2="100%" id="linearGradient-1">
            <stop stop-color="#886F8B" offset="0%"></stop>
            <stop stop-color="#B9B79D" offset="100%"></stop>
        </linearGradient>
        <linearGradient x1="50%" y1="0%" x2="50%" y2="100%" id="linearGradient-2">
            <stop stop-color="#95807A" offset="0%"></stop>
            <stop stop-color="#D8D8D8" offset="100%"></stop>
        </linearGradient>
    </defs>
    <g id="Page-1" stroke="none" stroke-width="1" fill="none" fill-rule="evenodd" sketch:type="MSPage">
        <g id="Desktop-HD-Copy-4" sketch:type="MSArtboardGroup" transform="translate(-1.000000, -569.000000)">
            <g id="Group" sketch:type="MSLayerGroup" transform="translate(0.000000, 569.000000)">
                <g id="Path-1-Copy-+-Path-1-Copy-Copy-Copy-Copy-Copy-Copy-Copy-Copy-Copy-+-Path-1-Copy-+-Path-1-Copy-Copy-Copy-Copy-Copy-Copy-Copy-Copy" transform="translate(451.000000, 46.000000)" fill="url(#linearGradient-1)" sketch:type="MSShapeGroup">
                    <g id="Path-1-Copy-+-Path-1-Copy-Copy-Copy-Copy-Copy-Copy-Copy-Copy-Copy" transform="translate(0.000000, 18.000000)">
                        <path d="M0,338.796957 C0,338.796957 109.333586,130.33858 114.031091,62.6979032 C128.934687,100.985864 170.367358,348.634486 170.367358,348.634486 L0,338.796957 Z" id="Path-1-Copy" transform="translate(85.183679, 205.666195) scale(-1, 1) translate(-85.183679, -205.666195) "></path>
                        <path d="M0,335.616935 C0,335.616935 132.902314,82.2217832 138.612447,0 C156.728767,46.5415863 207.09296,347.575112 207.09296,347.575112 L0,335.616935 Z" id="Path-1"></path>
                    </g>
                    <g id="Path-1-Copy-+-Path-1-Copy-Copy-Copy-Copy-Copy-Copy-Copy-Copy" transform="translate(228.113385, 175.463731) scale(-1, 1) translate(-228.113385, -175.463731) translate(124.000000, 0.000000)">
                        <path d="M0,340.738891 C0,340.738891 109.333586,131.085661 114.031091,63.0572782 C128.934687,101.5647 170.367358,350.632807 170.367358,350.632807 L0,340.738891 Z" id="Path-1-Copy" transform="translate(85.183679, 206.845043) scale(-1, 1) translate(-85.183679, -206.845043) "></path>
                        <path d="M0,337.540641 C0,337.540641 132.902314,82.6930661 138.612447,0 C156.728767,46.8083557 207.09296,349.56736 207.09296,349.56736 L0,337.540641 Z" id="Path-1"></path>
                    </g>
                </g>
                <g id="Path-1-Copy-+-Path-1-Copy-Copy-Copy-Copy-Copy-Copy-Copy-Copy-Copy-+-Path-1-Copy-+-Path-1-Copy-Copy-Copy-Copy-Copy-Copy-Copy-Copy-Copy" transform="translate(871.000000, 46.000000)" fill="url(#linearGradient-1)" sketch:type="MSShapeGroup">
                    <g id="Path-1-Copy-+-Path-1-Copy-Copy-Copy-Copy-Copy-Copy-Copy-Copy-Copy" transform="translate(0.000000, 18.000000)">
                        <path d="M0,338.796957 C0,338.796957 109.333586,130.33858 114.031091,62.6979032 C128.934687,100.985864 170.367358,348.634486 170.367358,348.634486 L0,338.796957 Z" id="Path-1-Copy" transform="translate(85.183679, 205.666195) scale(-1, 1) translate(-85.183679, -205.666195) "></path>
                        <path d="M0,335.616935 C0,335.616935 132.902314,82.2217832 138.612447,0 C156.728767,46.5415863 207.09296,347.575112 207.09296,347.575112 L0,335.616935 Z" id="Path-1"></path>
                    </g>
                    <g id="Path-1-Copy-+-Path-1-Copy-Copy-Copy-Copy-Copy-Copy-Copy-Copy" transform="translate(128.113385, 175.463731) scale(-1, 1) translate(-128.113385, -175.463731) translate(24.000000, 0.000000)">
                        <path d="M0,340.738891 C0,340.738891 109.333586,131.085661 114.031091,63.0572782 C128.934687,101.5647 170.367358,350.632807 170.367358,350.632807 L0,340.738891 Z" id="Path-1-Copy" transform="translate(85.183679, 206.845043) scale(-1, 1) translate(-85.183679, -206.845043) "></path>
                        <path d="M0,337.540641 C0,337.540641 132.902314,82.6930661 138.612447,0 C156.728767,46.8083557 207.09296,349.56736 207.09296,349.56736 L0,337.540641 Z" id="Path-1"></path>
                    </g>
                </g>
                <g id="Path-1-Copy-+-Path-1" transform="translate(53.000000, 120.000000)" fill="url(#linearGradient-1)" sketch:type="MSShapeGroup">
                    <path d="M0,124.283742 C0,124.283742 51.9819091,47.8131992 54.2153059,23 C61.3011188,37.0454951 81,127.892526 81,127.892526 L0,124.283742 Z" id="Path-1-Copy" transform="translate(40.500000, 75.446263) scale(-1, 1) translate(-40.500000, -75.446263) "></path>
                    <path d="M0,123.117188 C0,123.117188 63.1875,30.1621094 65.9023438,0 C74.515625,17.0732422 98.4609375,127.503906 98.4609375,127.503906 L0,123.117188 Z" id="Path-1"></path>
                </g>
                <g id="Path-1-Copy-+-Path-1" transform="translate(53.000000, 126.000000)" fill="url(#linearGradient-1)" sketch:type="MSShapeGroup">
                    <path d="M0,124.283742 C0,124.283742 51.9819091,47.8131992 54.2153059,23 C61.3011188,37.0454951 81,127.892526 81,127.892526 L0,124.283742 Z" id="Path-1-Copy" transform="translate(40.500000, 75.446263) scale(-1, 1) translate(-40.500000, -75.446263) "></path>
                    <path d="M0,123.117188 C0,123.117188 63.1875,30.1621094 65.9023438,0 C74.515625,17.0732422 98.4609375,127.503906 98.4609375,127.503906 L0,123.117188 Z" id="Path-1"></path>
                </g>
                <g id="Path-4-+-Path-3" transform="translate(0.000000, 64.000000)" sketch:type="MSShapeGroup">
                    <path d="M0.732421875,174.229567 L35.6347656,1.50952524 L50.7402344,190.96848 L0.296875,186.657692 L0.732421875,174.229567 Z" id="Path-4" fill="#D8D8D8"></path>
                    <path d="M105.033203,192.148918 C105.033203,192.148918 42.3496094,36.2902043 34.7304688,0.483563702 C34.3222656,42.5013522 24.6191406,161.958834 19.2363281,179.545913 C13.8535156,197.132993 105.033203,192.148918 105.033203,192.148918 Z" id="Path-3" fill="url(#linearGradient-2)"></path>
                </g>
                <g id="Path-1-Copy-+-Path-1-Copy" transform="translate(217.000000, 133.000000)" fill="url(#linearGradient-1)" sketch:type="MSShapeGroup">
                    <path d="M0,185.384213 C0,185.384213 109.333586,71.319162 114.031091,34.3072782 C128.934687,55.2578307 170.367358,190.76715 170.367358,190.76715 L0,185.384213 Z" id="Path-1-Copy" transform="translate(85.183679, 112.537214) scale(-1, 1) translate(-85.183679, -112.537214) "></path>
                    <path d="M0,183.644157 C0,183.644157 132.902314,44.9904294 138.612447,0 C156.728767,25.466803 207.09296,190.187477 207.09296,190.187477 L0,183.644157 Z" id="Path-1"></path>
                </g>
                <g id="Path-4-+-Path-3-Copy" transform="translate(106.000000, 40.000000)" sketch:type="MSShapeGroup">
                    <path d="M1.54050345,259.884445 L74.9506279,2.25163923 L106.721971,284.852554 L0.624417399,278.422494 L1.54050345,259.884445 Z" id="Path-4" fill="#D8D8D8"></path>
                    <path d="M220.916411,286.613321 C220.916411,286.613321 89.0739636,54.1312233 73.0486197,0.721293671 C72.1900457,63.3959005 51.781456,241.581164 40.4597826,267.814417 C29.1381093,294.04767 220.916411,286.613321 220.916411,286.613321 Z" id="Path-3" fill="url(#linearGradient-2)"></path>
                </g>
                <g id="Path-4-+-Path-3" transform="translate(0.000000, 58.000000)" sketch:type="MSShapeGroup">
                    <path d="M0.732421875,174.229567 L35.6347656,1.50952524 L50.7402344,190.96848 L0.296875,186.657692 L0.732421875,174.229567 Z" id="Path-4" fill="#D8D8D8"></path>
                    <path d="M105.033203,192.148918 C105.033203,192.148918 42.3496094,36.2902043 34.7304688,0.483563702 C34.3222656,42.5013522 24.6191406,161.958834 19.2363281,179.545913 C13.8535156,197.132993 105.033203,192.148918 105.033203,192.148918 Z" id="Path-3" fill="url(#linearGradient-2)"></path>
                </g>
                <g id="Path-1-Copy-+-Path-1-Copy" transform="translate(277.000000, 74.000000)" fill="url(#linearGradient-1)" sketch:type="MSShapeGroup">
                    <path d="M0,338.796957 C0,338.796957 109.333586,130.33858 114.031091,62.6979032 C128.934687,100.985864 170.367358,348.634486 170.367358,348.634486 L0,338.796957 Z" id="Path-1-Copy" transform="translate(85.183679, 205.666195) scale(-1, 1) translate(-85.183679, -205.666195) "></path>
                    <path d="M0,335.616935 C0,335.616935 132.902314,82.2217832 138.612447,0 C156.728767,46.5415863 207.09296,347.575112 207.09296,347.575112 L0,335.616935 Z" id="Path-1"></path>
                </g>
                <g id="Path-4-+-Path-3-Copy-5" transform="translate(841.500000, 168.753897) scale(-1, 1) translate(-841.500000, -168.753897) translate(752.000000, 81.000000)" sketch:type="MSShapeGroup">
                    <path d="M1.23682562,158.438585 L60.1756891,1.37271215 L85.6839807,173.660397 L0.501326651,169.74031 L1.23682562,158.438585 Z" id="Path-4" fill="#D8D8D8"></path>
                    <path d="M177.36739,174.733848 C177.36739,174.733848 71.5149064,33.0011072 58.6486218,0.43973678 C57.9592976,38.6493189 41.5738318,147.279988 32.4839881,163.273094 C23.3941443,179.2662 177.36739,174.733848 177.36739,174.733848 Z" id="Path-3" fill="url(#linearGradient-2)"></path>
                </g>
                <g id="Path-1-Copy-+-Path-1-Copy-Copy-Copy-Copy-Copy-Copy" transform="translate(648.000000, 57.000000)" fill="url(#linearGradient-1)" sketch:type="MSShapeGroup">
                    <path d="M0,338.796957 C0,338.796957 109.333586,130.33858 114.031091,62.6979032 C128.934687,100.985864 170.367358,348.634486 170.367358,348.634486 L0,338.796957 Z" id="Path-1-Copy" transform="translate(85.183679, 205.666195) scale(-1, 1) translate(-85.183679, -205.666195) "></path>
                    <path d="M0,335.616935 C0,335.616935 132.902314,82.2217832 138.612447,0 C156.728767,46.5415863 207.09296,347.575112 207.09296,347.575112 L0,335.616935 Z" id="Path-1"></path>
                </g>
                <g id="Path-1-Copy-+-Path-1-Copy-Copy" transform="translate(1163.000000, 57.000000)" fill="url(#linearGradient-1)" sketch:type="MSShapeGroup">
                    <path d="M0,338.796957 C0,338.796957 109.333586,130.33858 114.031091,62.6979032 C128.934687,100.985864 170.367358,348.634486 170.367358,348.634486 L0,338.796957 Z" id="Path-1-Copy" transform="translate(85.183679, 205.666195) scale(-1, 1) translate(-85.183679, -205.666195) "></path>
                    <path d="M0,335.616935 C0,335.616935 132.902314,82.2217832 138.612447,0 C156.728767,46.5415863 207.09296,347.575112 207.09296,347.575112 L0,335.616935 Z" id="Path-1"></path>
                </g>
                <g id="Path-1-Copy-+-Path-1-Copy-Copy-Copy-Copy" transform="translate(1021.000000, 57.000000)" fill="url(#linearGradient-1)" sketch:type="MSShapeGroup">
                    <path d="M0,338.796957 C0,338.796957 109.333586,130.33858 114.031091,62.6979032 C128.934687,100.985864 170.367358,348.634486 170.367358,348.634486 L0,338.796957 Z" id="Path-1-Copy" transform="translate(85.183679, 205.666195) scale(-1, 1) translate(-85.183679, -205.666195) "></path>
                    <path d="M0,335.616935 C0,335.616935 132.902314,82.2217832 138.612447,0 C156.728767,46.5415863 207.09296,347.575112 207.09296,347.575112 L0,335.616935 Z" id="Path-1"></path>
                </g>
                <g id="Path-1-Copy-+-Path-1-Copy-Copy-Copy" transform="translate(990.000000, 123.000000)" fill="url(#linearGradient-1)" sketch:type="MSShapeGroup">
                    <path d="M0,210.629348 C0,210.629348 109.333586,81.0312181 114.031091,38.9791532 C128.934687,62.7826969 170.367358,216.745319 170.367358,216.745319 L0,210.629348 Z" id="Path-1-Copy" transform="translate(85.183679, 127.862236) scale(-1, 1) translate(-85.183679, -127.862236) "></path>
                    <path d="M0,208.652335 C0,208.652335 132.902314,51.1171079 138.612447,0 C156.728767,28.9348053 207.09296,216.086708 207.09296,216.086708 L0,208.652335 Z" id="Path-1"></path>
                </g>
                <g id="Path-1-Copy-+-Path-1-Copy-Copy-Copy-Copy-Copy" transform="translate(879.000000, 123.000000)" fill="url(#linearGradient-1)" sketch:type="MSShapeGroup">
                    <path d="M0,210.629348 C0,210.629348 109.333586,81.0312181 114.031091,38.9791532 C128.934687,62.7826969 170.367358,216.745319 170.367358,216.745319 L0,210.629348 Z" id="Path-1-Copy" transform="translate(85.183679, 127.862236) scale(-1, 1) translate(-85.183679, -127.862236) "></path>
                    <path d="M0,208.652335 C0,208.652335 132.902314,51.1171079 138.612447,0 C156.728767,28.9348053 207.09296,216.086708 207.09296,216.086708 L0,208.652335 Z" id="Path-1"></path>
                </g>
                <g id="Path-1-Copy-+-Path-1-Copy-Copy-Copy-Copy-Copy-Copy-Copy" transform="translate(505.113385, 231.463731) scale(-1, 1) translate(-505.113385, -231.463731) translate(401.000000, 56.000000)" fill="url(#linearGradient-1)" sketch:type="MSShapeGroup">
                    <path d="M0,340.738891 C0,340.738891 109.333586,131.085661 114.031091,63.0572782 C128.934687,101.5647 170.367358,350.632807 170.367358,350.632807 L0,340.738891 Z" id="Path-1-Copy" transform="translate(85.183679, 206.845043) scale(-1, 1) translate(-85.183679, -206.845043) "></path>
                    <path d="M0,337.540641 C0,337.540641 132.902314,82.6930661 138.612447,0 C156.728767,46.8083557 207.09296,349.56736 207.09296,349.56736 L0,337.540641 Z" id="Path-1"></path>
                </g>
                <g id="Path-4-+-Path-3-Copy-2" transform="translate(1065.000000, 131.706944)" sketch:type="MSShapeGroup">
                    <path d="M0.835720137,140.986808 L40.6605704,1.22150992 L57.8964625,154.531959 L0.338745229,151.043664 L0.835720137,140.986808 Z" id="Path-4" fill="#D8D8D8"></path>
                    <path d="M119.846725,155.487171 C119.846725,155.487171 48.3224526,29.3660837 39.6287346,0.391300419 C39.1629599,34.3921532 28.0913396,131.057313 21.9493537,145.288802 C15.8073678,159.520292 119.846725,155.487171 119.846725,155.487171 Z" id="Path-3" fill="url(#linearGradient-2)"></path>
                </g>
                <g id="Path-4-+-Path-3-Copy-4" transform="translate(769.000000, 0.000000)" sketch:type="MSShapeGroup">
                    <path d="M0.835720137,259.884445 L40.6605704,2.25163923 L57.8964625,284.852554 L0.338745229,278.422494 L0.835720137,259.884445 Z" id="Path-4" fill="#D8D8D8"></path>
                    <path d="M119.846725,286.613321 C119.846725,286.613321 48.3224526,54.1312233 39.6287346,0.721293671 C39.1629599,63.3959005 28.0913396,241.581164 21.9493537,267.814417 C15.8073678,294.04767 119.846725,286.613321 119.846725,286.613321 Z" id="Path-3" fill="url(#linearGradient-2)"></path>
                </g>
                <g id="Path-4-+-Path-3-Copy-3" transform="translate(1288.000000, 23.000000)" sketch:type="MSShapeGroup">
                    <path d="M1.54050345,259.884445 L74.9506279,2.25163923 L106.721971,284.852554 L0.624417399,278.422494 L1.54050345,259.884445 Z" id="Path-4" fill="#D8D8D8"></path>
                    <path d="M220.916411,286.613321 C220.916411,286.613321 89.0739636,54.1312233 73.0486197,0.721293671 C72.1900457,63.3959005 51.781456,241.581164 40.4597826,267.814417 C29.1381093,294.04767 220.916411,286.613321 220.916411,286.613321 Z" id="Path-3" fill="url(#linearGradient-2)"></path>
                </g>
                <g id="Path-4-+-Path-3-Copy-5" transform="translate(485.000000, 81.000000)" sketch:type="MSShapeGroup">
                    <path d="M1.23682562,158.438585 L60.1756891,1.37271215 L85.6839807,173.660397 L0.501326651,169.74031 L1.23682562,158.438585 Z" id="Path-4" fill="#D8D8D8"></path>
                    <path d="M177.36739,174.733848 C177.36739,174.733848 71.5149064,33.0011072 58.6486218,0.43973678 C57.9592976,38.6493189 41.5738318,147.279988 32.4839881,163.273094 C23.3941443,179.2662 177.36739,174.733848 177.36739,174.733848 Z" id="Path-3" fill="url(#linearGradient-2)"></path>
                </g>
            </g>
        </g>
    </g>
</svg>