<?xml version="1.0" encoding="utf-8"?>
<!-- Generator: Adobe Illustrator 19.1.0, SVG Export Plug-In . SVG Version: 6.00 Build 0)  -->
<svg version="1.1" id="Layer_1" xmlns="http://www.w3.org/2000/svg" xmlns:xlink="http://www.w3.org/1999/xlink" x="0px" y="0px"
	 viewBox="19.3 -3.7 61.3 52.7" style="enable-background:new 19.3 -3.7 61.3 52.7;" xml:space="preserve">
<style type="text/css">
	.st0{fill:#C6B08D;}
</style>
<path class="st0" d="M78,9.1C71.6,5.4,62.9,3.6,59.6,3c-0.9-0.2-1.8-0.4-2.6-0.8c-1.2-0.5-2.9-1.5-4-1.8l0-0.2
	c0-0.8-0.5-0.8-0.5-0.8h-2.9h-0.7h-2.2c0,0-0.5,0-0.5,0.8l0,0.2c-1.1,0.3-2.9,1.2-4,1.8c-0.8,0.4-1.7,0.7-2.6,0.8
	C36.1,3.6,27.4,5.4,21,9.1c0,0-0.5,0.3,0.3,0.3c0,0,10.1-3.6,18.4-3.6c4.7,0,7.1,2.5,7.1,2.5l0.2,2.6c0,0,0.7,3.4,0.6,6.4L47.9,44
	c0,0-0.7,2.1,0.6,2.5h0.6h0.4h1c1.3-0.4,0.6-2.5,0.6-2.5l0.3-26.7c-0.1-3,0.6-6.4,0.6-6.4l0.2-2.6c0,0,2.4-2.5,7.1-2.5
	c8.2,0,18.4,3.6,18.4,3.6C78.5,9.4,78,9.1,78,9.1z"/>
</svg>
