<?xml version="1.0" encoding="UTF-8" standalone="no"?>
<svg width="696px" height="634px" viewBox="0 0 696 634" version="1.1" xmlns="http://www.w3.org/2000/svg" xmlns:xlink="http://www.w3.org/1999/xlink" xmlns:sketch="http://www.bohemiancoding.com/sketch/ns">
    <!-- Generator: Sketch 3.4.3 (16044) - http://www.bohemiancoding.com/sketch -->
    <title>yuletype-logo</title>
    <desc>Created with Sketch.</desc>
    <defs>
        <radialGradient cx="51.1337101%" cy="44.6083273%" fx="51.1337101%" fy="44.6083273%" r="45.9231322%" id="radialGradient-1">
            <stop stop-color="#EDC75F" stop-opacity="0.8" offset="0%"></stop>
            <stop stop-color="#EDC861" offset="0.0628591954%"></stop>
            <stop stop-color="#EDC75F" stop-opacity="0" offset="100%"></stop>
        </radialGradient>
        <path id="path-2" d="M0,0.47 L695.113,0.47 L695.113,603 L0,603"></path>
        <path id="path-4" d="M0,0.47 L695.113,0.47 L695.113,603 L0,603"></path>
    </defs>
    <g id="Page-1" stroke="none" stroke-width="1" fill="none" fill-rule="evenodd" sketch:type="MSPage">
        <g id="Desktop-HD" sketch:type="MSArtboardGroup" transform="translate(-372.000000, -162.000000)">
            <g id="yuletype-logo" sketch:type="MSLayerGroup" transform="translate(370.000000, 162.000000)">
                <circle id="Oval-1" fill-opacity="0.280000001" fill="url(#radialGradient-1)" sketch:type="MSShapeGroup" cx="350" cy="350" r="350"></circle>
                <g id="Group" transform="translate(2.000000, 49.000000)">
                    <path d="M0,116.1022 C0,114.8892 0.668,113.8772 2.003,113.0682 C3.338,112.2602 4.692,111.8542 6.069,111.8542 C7.525,111.8542 8.739,112.7452 9.71,114.5242 L31.073,156.1582 L52.314,114.5242 C53.286,112.7452 54.499,111.8542 55.956,111.8542 C57.412,111.8542 58.787,112.2602 60.083,113.0682 C61.376,113.8772 62.025,114.8892 62.025,116.1022 C62.025,116.7512 61.862,117.4372 61.539,118.1652 L36.414,165.0182 C36.251,165.2612 36.171,165.6672 36.171,166.2322 L36.171,196.9412 C36.171,198.0752 35.665,198.9652 34.654,199.6112 C33.642,200.2602 32.448,200.5822 31.073,200.5822 C29.696,200.5822 28.503,200.2602 27.492,199.6112 C26.479,198.9652 25.976,198.0752 25.976,196.9412 L25.976,166.2322 C25.976,165.8282 25.854,165.4242 25.611,165.0182 L0.485,118.1652 C0.161,117.4372 0,116.7512 0,116.1022" id="Fill-1" fill="#336F71" sketch:type="MSShapeGroup"></path>
                    <path d="M215.1834,174.8503 L215.1834,115.3743 C215.1834,114.2423 215.6884,113.3713 216.7014,112.7643 C217.7114,112.1573 218.9044,111.8543 220.2814,111.8543 C221.6564,111.8543 222.8494,112.1573 223.8624,112.7643 C224.8724,113.3713 225.3794,114.2423 225.3794,115.3743 L225.3794,174.8503 C225.3794,186.3413 230.7994,192.0863 241.6444,192.0863 C246.9034,192.0863 250.9494,190.6503 253.7824,187.7773 C256.6144,184.9063 258.0304,180.5973 258.0304,174.8503 L258.0304,115.3743 C258.0304,113.0283 259.7294,111.8543 263.1284,111.8543 C264.5034,111.8543 265.6964,112.1573 266.7084,112.7643 C267.7194,113.3713 268.2264,114.2423 268.2264,115.3743 L268.2264,174.8503 C268.2264,183.9953 265.7984,190.6903 260.9434,194.9383 C256.0884,199.1863 249.6554,201.3113 241.6444,201.3113 C233.6324,201.3113 227.2184,199.1863 222.4054,194.9383 C217.5894,190.6903 215.1834,183.9953 215.1834,174.8503" id="Fill-3" fill="#336F71" sketch:type="MSShapeGroup"></path>
                    <path d="M433.9476,196.9411 L433.9476,115.3741 C433.9476,114.2421 434.4516,113.3711 435.4646,112.7641 C436.4756,112.1571 437.6686,111.8541 439.0456,111.8541 C440.4206,111.8541 441.6136,112.1571 442.6266,112.7641 C443.6366,113.3711 444.1426,114.2421 444.1426,115.3741 L444.1426,191.3581 L477.2796,191.3581 C478.3306,191.3581 479.1406,191.8241 479.7076,192.7541 C480.2726,193.6851 480.5566,194.7561 480.5566,195.9701 C480.5566,197.1841 480.2726,198.2571 479.7076,199.1871 C479.1406,200.1181 478.3306,200.5831 477.2796,200.5831 L438.5596,200.5831 C437.3456,200.5831 436.2726,200.2601 435.3436,199.6111 C434.4126,198.9651 433.9476,198.0751 433.9476,196.9411" id="Fill-5" fill="#336F71" sketch:type="MSShapeGroup"></path>
                    <g id="Group-9">
                        <mask id="mask-3" sketch:name="Clip 8" fill="white">
                            <use xlink:href="#path-2"></use>
                        </mask>
                        <g id="Clip-8"></g>
                        <path d="M643.7693,196.9411 L643.7693,115.4951 C643.7693,114.3631 644.2343,113.4741 645.1653,112.8251 C646.0943,112.1781 647.1673,111.8541 648.3813,111.8541 L691.5923,111.8541 C692.7253,111.8541 693.5953,112.3001 694.2023,113.1891 C694.8093,114.0811 695.1133,115.1311 695.1133,116.3451 C695.1133,117.6401 694.7893,118.7531 694.1413,119.6831 C693.4933,120.6141 692.6433,121.0791 691.5923,121.0791 L653.9643,121.0791 L653.9643,151.9091 L672.9003,151.9091 C673.9513,151.9091 674.8003,152.3341 675.4493,153.1841 C676.0953,154.0331 676.4203,155.0651 676.4203,156.2791 C676.4203,157.3321 676.1173,158.2821 675.5093,159.1311 C674.9033,159.9811 674.0323,160.4061 672.9003,160.4061 L653.9643,160.4061 L653.9643,191.3581 L691.5923,191.3581 C692.6433,191.3581 693.4933,191.8241 694.1413,192.7541 C694.7893,193.6851 695.1133,194.7981 695.1133,196.0911 C695.1133,197.3051 694.8093,198.3581 694.2023,199.2481 C693.5953,200.1391 692.7253,200.5831 691.5923,200.5831 L648.3813,200.5831 C647.1673,200.5831 646.0943,200.2601 645.1653,199.6111 C644.2343,198.9651 643.7693,198.0751 643.7693,196.9411" id="Fill-7" fill="#336F71" sketch:type="MSShapeGroup" mask="url(#mask-3)"></path>
                    </g>
                    <path d="M2.6704,266.3488 C2.6704,265.1658 2.9924,264.1198 3.6414,263.2138 C4.2874,262.3068 5.1774,261.8538 6.3124,261.8538 L55.7134,261.8538 C56.8454,261.8538 57.7344,262.3068 58.3834,263.2138 C59.0294,264.1198 59.3554,265.1658 59.3554,266.3488 C59.3554,267.6098 59.0294,268.7138 58.3834,269.6608 C57.7344,270.6068 56.8454,271.0788 55.7134,271.0788 L36.1714,271.0788 L36.1714,346.9308 C36.1714,348.0678 35.6644,348.9618 34.6534,349.6098 C33.6414,350.2588 32.4474,350.5828 31.0724,350.5828 C29.6954,350.5828 28.5034,350.2588 27.4924,349.6098 C26.4804,348.9618 25.9754,348.0678 25.9754,346.9308 L25.9754,271.0788 L6.3124,271.0788 C5.1774,271.0788 4.2874,270.6258 3.6414,269.7188 C2.9924,268.8128 2.6704,267.6898 2.6704,266.3488" id="Fill-10" fill="#336F71" sketch:type="MSShapeGroup"></path>
                    <path d="M210.6922,266.1022 C210.6922,264.8892 211.3602,263.8772 212.6952,263.0682 C214.0302,262.2602 215.3842,261.8542 216.7612,261.8542 C218.2172,261.8542 219.4312,262.7452 220.4022,264.5242 L241.7652,306.1582 L263.0062,264.5242 C263.9782,262.7452 265.1912,261.8542 266.6482,261.8542 C268.1042,261.8542 269.4792,262.2602 270.7752,263.0682 C272.0682,263.8772 272.7172,264.8892 272.7172,266.1022 C272.7172,266.7512 272.5542,267.4372 272.2312,268.1652 L247.1062,315.0182 C246.9432,315.2612 246.8632,315.6672 246.8632,316.2322 L246.8632,346.9412 C246.8632,348.0762 246.3572,348.9652 245.3462,349.6122 C244.3342,350.2602 243.1402,350.5822 241.7652,350.5822 C240.3882,350.5822 239.1952,350.2602 238.1842,349.6122 C237.1712,348.9652 236.6682,348.0762 236.6682,346.9412 L236.6682,316.2322 C236.6682,315.8282 236.5462,315.4242 236.3032,315.0182 L211.1772,268.1652 C210.8532,267.4372 210.6922,266.7512 210.6922,266.1022" id="Fill-12" fill="#336F71" sketch:type="MSShapeGroup"></path>
                    <g id="Group-16">
                        <mask id="mask-5" sketch:name="Clip 15" fill="white">
                            <use xlink:href="#path-4"></use>
                        </mask>
                        <g id="Clip-15"></g>
                        <path d="M643.7693,346.9411 L643.7693,265.4951 C643.7693,264.3631 644.2343,263.4741 645.1653,262.8251 C646.0943,262.1781 647.1673,261.8541 648.3813,261.8541 L691.5923,261.8541 C692.7253,261.8541 693.5953,262.3001 694.2023,263.1891 C694.8093,264.0811 695.1133,265.1311 695.1133,266.3451 C695.1133,267.6401 694.7893,268.7531 694.1413,269.6831 C693.4933,270.6141 692.6433,271.0791 691.5923,271.0791 L653.9643,271.0791 L653.9643,301.9091 L672.9003,301.9091 C673.9513,301.9091 674.8003,302.3341 675.4493,303.1841 C676.0953,304.0331 676.4203,305.0651 676.4203,306.2791 C676.4203,307.3321 676.1173,308.2821 675.5093,309.1311 C674.9033,309.9811 674.0323,310.4061 672.9003,310.4061 L653.9643,310.4061 L653.9643,341.3581 L691.5923,341.3581 C692.6433,341.3581 693.4933,341.8251 694.1413,342.7541 C694.7893,343.6851 695.1133,344.7981 695.1133,346.0911 C695.1133,347.3051 694.8093,348.3581 694.2023,349.2481 C693.5953,350.1391 692.7253,350.5831 691.5923,350.5831 L648.3813,350.5831 C647.1673,350.5831 646.0943,350.2601 645.1653,349.6121 C644.2343,348.9651 643.7693,348.0761 643.7693,346.9411" id="Fill-14" fill="#336F71" sketch:type="MSShapeGroup" mask="url(#mask-5)"></path>
                    </g>
                    <path d="M441.0477,307.0075 L457.4347,307.0075 C462.5317,307.0075 466.4777,305.5715 469.2687,302.6985 C472.0607,299.8265 473.4567,295.5185 473.4567,289.7715 L473.4567,288.3155 C473.4567,282.5705 472.0607,278.2615 469.2687,275.3875 C466.4777,272.5165 462.5317,271.0785 457.4347,271.0785 L441.0477,271.0785 L441.0477,307.0075 Z M430.8527,346.9415 L430.8527,265.3745 C430.8527,264.4035 431.2347,263.5745 432.0057,262.8855 C432.7737,262.1995 433.7657,261.8545 434.9797,261.8545 L457.9197,261.8545 C465.6887,261.8545 471.9187,263.9595 476.6117,268.1655 C481.3047,272.3745 483.6517,279.0105 483.6517,288.0715 L483.6517,289.1645 C483.6517,298.2285 481.2647,304.8825 476.4907,309.1315 C471.7157,313.3795 465.3637,315.5045 457.4347,315.5045 L441.0477,315.5045 L441.0477,346.9415 C441.0477,348.0755 440.5417,348.9655 439.5307,349.6115 C438.5187,350.2605 437.3247,350.5825 435.9497,350.5825 C434.5727,350.5825 433.3807,350.2605 432.3687,349.6115 C431.3567,348.9655 430.8527,348.0755 430.8527,346.9415 L430.8527,346.9415 Z" id="Fill-17" fill="#336F71" sketch:type="MSShapeGroup"></path>
                    <path d="M642.7986,474.8502 L642.7986,438.3152 C642.7986,429.1712 645.1646,422.4752 649.8996,418.2272 C654.6326,413.9782 660.8836,411.8542 668.6526,411.8542 C676.5816,411.8542 682.9756,413.8572 687.8296,417.8632 C692.6856,421.8682 695.1126,427.1082 695.1126,433.5812 C695.1126,435.4442 694.6886,436.7372 693.8386,437.4652 C692.9886,438.1942 691.7146,438.5582 690.0156,438.5582 C686.6956,438.5582 684.9966,437.3852 684.9166,435.0372 C683.8646,425.7332 678.5246,421.0792 668.8956,421.0792 C658.2936,421.0792 652.9936,426.8262 652.9936,438.3152 L652.9936,474.8502 C652.9936,486.3412 658.2936,492.0862 668.8956,492.0862 C673.9926,492.0862 677.9386,490.6512 680.7296,487.7772 C683.5216,484.9062 684.9166,480.5972 684.9166,474.8502 L684.9166,462.4692 L670.4736,462.4692 C669.3386,462.4692 668.4706,462.0442 667.8626,461.1952 C667.2566,460.3452 666.9526,459.3552 666.9526,458.2212 C666.9526,457.0892 667.2756,456.0972 667.9236,455.2472 C668.5706,454.3982 669.4206,453.9732 670.4736,453.9732 L691.5926,453.9732 C692.7256,453.9732 693.5956,454.3372 694.2026,455.0652 C694.8096,455.7932 695.1126,456.6852 695.1126,457.7362 L695.1126,474.8502 C695.1126,483.9962 692.7256,490.6902 687.9516,494.9392 C683.1766,499.1872 676.8246,501.3112 668.8956,501.3112 C660.9636,501.3112 654.6326,499.1872 649.8996,494.9392 C645.1646,490.6902 642.7986,483.9962 642.7986,474.8502" id="Fill-21" fill="#FFFFFF" sketch:type="MSShapeGroup"></path>
                    <path d="M287.7744,413.3541 L414.1584,413.3541 L350.9664,251.9811 L287.7744,413.3541 Z M425.8824,421.3541 L276.0494,421.3541 L350.9664,230.0411 L425.8824,421.3541 Z" id="Fill-23" fill="#ED9F5F" sketch:type="MSShapeGroup"></path>
                    <path d="M396.1181,412.3541 L472.4071,412.3541 L434.2631,309.8421 L396.1181,412.3541 Z M483.9191,420.3541 L384.6061,420.3541 L434.2631,286.9021 L483.9191,420.3541 Z" id="Fill-25" fill="#EDC75F" sketch:type="MSShapeGroup"></path>
                    <path d="M479.0644,421.3541 L239.9534,421.3541 C237.7444,421.3541 235.9534,419.5631 235.9534,417.3541 C235.9534,415.1451 237.7444,413.3541 239.9534,413.3541 L479.0644,413.3541 C481.2734,413.3541 483.0644,415.1451 483.0644,417.3541 C483.0644,419.5631 481.2734,421.3541 479.0644,421.3541" id="Fill-27" fill="#FFFFFF" sketch:type="MSShapeGroup"></path>
                    <path d="M479.0644,501.1647 L435.2154,501.1647 C433.0064,501.1647 431.2154,499.3737 431.2154,497.1647 C431.2154,494.9557 433.0064,493.1647 435.2154,493.1647 L479.0644,493.1647 C481.2734,493.1647 483.0644,494.9557 483.0644,497.1647 C483.0644,499.3737 481.2734,501.1647 479.0644,501.1647" id="Fill-29" fill="#FFFFFF" sketch:type="MSShapeGroup"></path>
                    <path d="M388.1582,501.1647 L244.9532,501.1647 C242.7442,501.1647 240.9532,499.3737 240.9532,497.1647 C240.9532,494.9557 242.7442,493.1647 244.9532,493.1647 L388.1582,493.1647 C390.3672,493.1647 392.1582,494.9557 392.1582,497.1647 C392.1582,499.3737 390.3672,501.1647 388.1582,501.1647" id="Fill-31" fill="#FFFFFF" sketch:type="MSShapeGroup"></path>
                    <path d="M312.7539,111.799 L320.1509,121.841 L327.5489,111.799 L320.1509,101.757 L312.7539,111.799 Z M320.1509,135.33 L302.8179,111.799 L320.1509,88.268 L337.4839,111.799 L320.1509,135.33 Z" id="Fill-33" fill="#ED9F5F" sketch:type="MSShapeGroup"></path>
                    <path d="M364.4424,170.799 L376.5634,187.254 L388.6844,170.799 L376.5634,154.344 L364.4424,170.799 Z M376.5634,200.742 L354.5064,170.799 L376.5634,140.855 L398.6204,170.799 L376.5634,200.742 Z" id="Fill-35" fill="#DC5346" sketch:type="MSShapeGroup"></path>
                    <path d="M354.6562,17.1271 L359.4742,23.6691 L364.2932,17.1271 L359.4742,10.5861 L354.6562,17.1271 Z M359.4742,33.7851 L347.2032,17.1271 L359.4742,0.4701 L371.7462,17.1271 L359.4742,33.7851 Z" id="Fill-37" fill="#EDC75F" sketch:type="MSShapeGroup"></path>
                    <path d="M398.0263,85.4469 C396.8423,85.4469 395.7203,84.7409 395.2473,83.5769 C394.6223,82.0429 395.3593,80.2919 396.8943,79.6669 L413.2573,73.0059 C414.7913,72.3829 416.5423,73.1179 417.1673,74.6539 C417.7923,76.1879 417.0543,77.9389 415.5193,78.5639 L399.1563,85.2249 C398.7863,85.3749 398.4033,85.4469 398.0263,85.4469" id="Fill-39" fill="#DC5346" sketch:type="MSShapeGroup"></path>
                    <path d="M413.498,100.0226 C412.314,100.0226 411.192,99.3166 410.719,98.1526 L403.429,80.2466 C402.804,78.7116 403.541,76.9616 405.076,76.3366 C406.608,75.7116 408.36,76.4496 408.985,77.9836 L416.275,95.8906 C416.9,97.4246 416.163,99.1756 414.628,99.7996 C414.258,99.9506 413.875,100.0226 413.498,100.0226" id="Fill-41" fill="#DC5346" sketch:type="MSShapeGroup"></path>
                    <path d="M309.4941,227.6564 C309.2241,227.6564 308.9511,227.6194 308.6801,227.5434 C307.0851,227.0944 306.1551,225.4374 306.6041,223.8434 L314.4751,195.8734 C314.9251,194.2784 316.5871,193.3514 318.1761,193.7984 C319.7701,194.2474 320.7001,195.9044 320.2511,197.4984 L312.3801,225.4684 C312.0081,226.7914 310.8041,227.6564 309.4941,227.6564" id="Fill-43" fill="#EDC75F" sketch:type="MSShapeGroup"></path>
                    <path d="M324.791,231.9621 C323.475,231.9621 322.268,231.0891 321.9,229.7581 L317.815,214.9361 C317.376,213.3391 318.313,211.6871 319.911,211.2471 C321.507,210.8041 323.159,211.7451 323.601,213.3421 L327.686,228.1641 C328.125,229.7611 327.187,231.4131 325.59,231.8531 C325.323,231.9271 325.055,231.9621 324.791,231.9621" id="Fill-45" fill="#EDC75F" sketch:type="MSShapeGroup"></path>
                    <path d="M322.8564,217.4377 C321.8774,217.4377 320.8824,217.3057 319.8954,217.0267 L312.2454,214.8747 C310.6504,214.4257 309.7204,212.7687 310.1694,211.1737 C310.6184,209.5787 312.2844,208.6497 313.8704,209.0987 L321.5204,211.2517 C324.1444,211.9907 326.8844,210.4547 327.6234,207.8287 C328.3614,205.2037 326.8264,202.4657 324.2014,201.7267 C322.9274,201.3707 321.5944,201.5287 320.4404,202.1737 C319.2884,202.8207 318.4574,203.8767 318.0984,205.1487 C317.6504,206.7457 315.9924,207.6747 314.3984,207.2247 C312.8034,206.7757 311.8744,205.1197 312.3234,203.5237 C313.1154,200.7087 314.9554,198.3717 317.5054,196.9407 C320.0554,195.5107 323.0094,195.1577 325.8264,195.9517 C331.6364,197.5867 335.0334,203.6437 333.3984,209.4547 C332.0414,214.2767 327.6364,217.4377 322.8564,217.4377" id="Fill-47" fill="#EDC75F" sketch:type="MSShapeGroup"></path>
                    <path d="M7.708,496.9411 L7.708,415.3751 C7.708,414.2421 8.212,413.3721 9.225,412.7641 C10.236,412.1581 11.429,411.8541 12.806,411.8541 C14.181,411.8541 15.374,412.1581 16.387,412.7641 C17.397,413.3721 17.903,414.2421 17.903,415.3751 L17.903,491.3581 L51.04,491.3581 C52.091,491.3581 52.901,491.8251 53.468,492.7541 C54.033,493.6851 54.317,494.7561 54.317,495.9701 C54.317,497.1841 54.033,498.2571 53.468,499.1871 C52.901,500.1181 52.091,500.5831 51.04,500.5831 L12.32,500.5831 C11.106,500.5831 10.033,500.2601 9.104,499.6121 C8.173,498.9651 7.708,498.0761 7.708,496.9411" id="Fill-49" fill="#FFFFFF" sketch:type="MSShapeGroup"></path>
                    <path d="M392.1572,501.1647 L360.6222,501.1647 L388.7072,431.9287 L411.0132,486.9197 C411.8442,488.9677 410.8572,491.2997 408.8102,492.1307 C406.7652,492.9597 404.4302,491.9757 403.5992,489.9277 L388.7072,453.2117 L372.5012,493.1647 L392.1572,493.1647 C394.3662,493.1647 396.1572,494.9557 396.1572,497.1647 C396.1572,499.3737 394.3662,501.1647 392.1572,501.1647" id="Fill-51" fill="#ED9F5F" sketch:type="MSShapeGroup"></path>
                    <path d="M410.4052,514.0602 C409.0182,514.0602 407.6712,513.3382 406.9312,512.0492 C405.8322,510.1322 406.4952,507.6882 408.4112,506.5892 L432.0542,493.0302 C434.5922,491.5642 438.2512,487.8482 435.8052,483.2542 C434.9512,481.6502 433.9432,481.2052 433.2592,481.0092 C431.4202,480.4792 428.6422,481.0932 426.0212,482.6072 L402.3672,496.1722 C400.4492,497.2732 398.0082,496.6102 396.9072,494.6932 C395.8072,492.7762 396.4702,490.3312 398.3862,489.2332 L422.0302,475.6732 C426.5882,473.0412 431.4842,472.1812 435.4612,473.3182 C438.6372,474.2272 441.1982,476.3632 442.8662,479.4942 C447.2862,487.7932 442.7802,496.0732 436.0462,499.9632 L412.3912,513.5292 C411.7632,513.8892 411.0802,514.0602 410.4052,514.0602" id="Fill-53" fill="#FFFFFF" sketch:type="MSShapeGroup"></path>
                    <path d="M405.1328,495.3043 C401.8198,495.3043 399.1248,497.9983 399.1248,501.3113 C399.1248,504.6233 401.8198,507.3183 405.1328,507.3183 C408.4458,507.3183 411.1398,504.6233 411.1398,501.3113 C411.1398,497.9983 408.4458,495.3043 405.1328,495.3043 M405.1328,515.3183 C397.4088,515.3183 391.1248,509.0343 391.1248,501.3113 C391.1248,493.5873 397.4088,487.3043 405.1328,487.3043 C412.8568,487.3043 419.1398,493.5873 419.1398,501.3113 C419.1398,509.0343 412.8568,515.3183 405.1328,515.3183" id="Fill-55" fill="#FFFFFF" sketch:type="MSShapeGroup"></path>
                    <path d="M241.705,421.6881 C230.322,421.6881 220.705,438.1311 220.705,457.5941 C220.705,477.0571 230.322,493.5001 241.705,493.5001 C253.088,493.5001 262.705,477.0571 262.705,457.5941 C262.705,438.1311 253.088,421.6881 241.705,421.6881 M241.705,501.5001 C225.443,501.5001 212.705,482.2141 212.705,457.5941 C212.705,432.9741 225.443,413.6881 241.705,413.6881 C257.967,413.6881 270.705,432.9741 270.705,457.5941 C270.705,482.2141 257.967,501.5001 241.705,501.5001" id="Fill-57" fill="#FFFFFF" sketch:type="MSShapeGroup"></path>
                    <path d="M477.4658,501.4996 C475.2568,501.4996 473.4658,499.7086 473.4658,497.4996 C473.4658,495.2906 475.2568,493.4996 477.4658,493.4996 C488.8488,493.4996 498.4658,477.0576 498.4658,457.5946 C498.4658,438.1316 488.8488,421.6876 477.4658,421.6876 C475.2568,421.6876 473.4658,419.8966 473.4658,417.6876 C473.4658,415.4786 475.2568,413.6876 477.4658,413.6876 C493.7278,413.6876 506.4658,432.9746 506.4658,457.5946 C506.4658,482.2146 493.7278,501.4996 477.4658,501.4996" id="Fill-59" fill="#FFFFFF" sketch:type="MSShapeGroup"></path>
                    <path d="M260.123,413.3541 L366.034,413.3541 L313.078,291.4471 L260.123,413.3541 Z M378.231,421.3541 L247.926,421.3541 L313.078,271.3681 L378.231,421.3541 Z" id="Fill-61" fill="#DC5346" sketch:type="MSShapeGroup"></path>
                </g>
            </g>
        </g>
    </g>
</svg>