<?xml version="1.0" encoding="UTF-8" standalone="no"?>
<svg width="294px" height="515px" viewBox="0 0 294 515" version="1.1" xmlns="http://www.w3.org/2000/svg" xmlns:xlink="http://www.w3.org/1999/xlink" xmlns:sketch="http://www.bohemiancoding.com/sketch/ns">
    <!-- Generator: Sketch 3.4.4 (17249) - http://www.bohemiancoding.com/sketch -->
    <title>logo</title>
    <desc>Created with Sketch.</desc>
    <defs>
        <path id="path-1" d="M0,0.152 L293.761,0.152 L293.761,515 L0,515"></path>
    </defs>
    <g id="Page-1" stroke="none" stroke-width="1" fill="none" fill-rule="evenodd" sketch:type="MSPage">
        <g id="Desktop-HD" sketch:type="MSArtboardGroup" transform="translate(-573.000000, -255.000000)">
            <g id="logo" sketch:type="MSLayerGroup" transform="translate(573.000000, 255.000000)">
                <path d="M75.0693,413.0361 L201.4533,413.0361 L138.2613,251.6631 L75.0693,413.0361 Z M213.1773,421.0361 L63.3443,421.0361 L138.2613,229.7231 L213.1773,421.0361 Z" id="Fill-1" fill="#ED9F5F" sketch:type="MSShapeGroup"></path>
                <path d="M183.4131,412.0361 L259.7021,412.0361 L221.5581,309.5241 L183.4131,412.0361 Z M271.2141,420.0361 L171.9011,420.0361 L221.5581,286.5841 L271.2141,420.0361 Z" id="Fill-2" fill="#EDC75F" sketch:type="MSShapeGroup"></path>
                <g id="Group-38">
                    <path d="M266.3594,421.0361 L27.2484,421.0361 C25.0394,421.0361 23.2484,419.2451 23.2484,417.0361 C23.2484,414.8271 25.0394,413.0361 27.2484,413.0361 L266.3594,413.0361 C268.5684,413.0361 270.3594,414.8271 270.3594,417.0361 C270.3594,419.2451 268.5684,421.0361 266.3594,421.0361" id="Fill-3" fill="#FFFFFF" sketch:type="MSShapeGroup"></path>
                    <path d="M266.3594,500.8467 L222.5104,500.8467 C220.3014,500.8467 218.5104,499.0557 218.5104,496.8467 C218.5104,494.6377 220.3014,492.8467 222.5104,492.8467 L266.3594,492.8467 C268.5684,492.8467 270.3594,494.6377 270.3594,496.8467 C270.3594,499.0557 268.5684,500.8467 266.3594,500.8467" id="Fill-5" fill="#FFFFFF" sketch:type="MSShapeGroup"></path>
                    <path d="M175.4531,500.8467 L32.2481,500.8467 C30.0391,500.8467 28.2481,499.0557 28.2481,496.8467 C28.2481,494.6377 30.0391,492.8467 32.2481,492.8467 L175.4531,492.8467 C177.6621,492.8467 179.4531,494.6377 179.4531,496.8467 C179.4531,499.0557 177.6621,500.8467 175.4531,500.8467" id="Fill-7" fill="#FFFFFF" sketch:type="MSShapeGroup"></path>
                    <path d="M100.0488,111.481 L107.4458,121.523 L114.8438,111.481 L107.4458,101.439 L100.0488,111.481 Z M107.4458,135.012 L90.1128,111.481 L107.4458,87.95 L124.7788,111.481 L107.4458,135.012 Z" id="Fill-9" fill="#ED9F5F" sketch:type="MSShapeGroup"></path>
                    <path d="M151.7373,170.481 L163.8583,186.936 L175.9793,170.481 L163.8583,154.026 L151.7373,170.481 Z M163.8583,200.424 L141.8013,170.481 L163.8583,140.537 L185.9153,170.481 L163.8583,200.424 Z" id="Fill-11" fill="#DC5346" sketch:type="MSShapeGroup"></path>
                    <path d="M141.9512,16.8091 L146.7692,23.3511 L151.5882,16.8091 L146.7692,10.2681 L141.9512,16.8091 Z M146.7692,33.4671 L134.4982,16.8091 L146.7692,0.1521 L159.0412,16.8091 L146.7692,33.4671 Z" id="Fill-13" fill="#EDC75F" sketch:type="MSShapeGroup"></path>
                    <path d="M185.3213,85.1289 C184.1373,85.1289 183.0153,84.4229 182.5423,83.2589 C181.9173,81.7249 182.6543,79.9739 184.1893,79.3489 L200.5523,72.6879 C202.0863,72.0649 203.8373,72.7999 204.4623,74.3359 C205.0873,75.8699 204.3493,77.6209 202.8143,78.2459 L186.4513,84.9069 C186.0813,85.0569 185.6983,85.1289 185.3213,85.1289" id="Fill-15" fill="#DC5346" sketch:type="MSShapeGroup"></path>
                    <path d="M200.793,99.7046 C199.609,99.7046 198.487,98.9986 198.014,97.8346 L190.724,79.9286 C190.099,78.3936 190.836,76.6436 192.371,76.0186 C193.903,75.3936 195.655,76.1316 196.28,77.6656 L203.57,95.5726 C204.195,97.1066 203.458,98.8576 201.923,99.4816 C201.553,99.6326 201.17,99.7046 200.793,99.7046" id="Fill-17" fill="#DC5346" sketch:type="MSShapeGroup"></path>
                    <path d="M96.7891,227.3384 C96.5191,227.3384 96.2461,227.3014 95.9751,227.2254 C94.3801,226.7764 93.4501,225.1194 93.8991,223.5254 L101.7701,195.5554 C102.2201,193.9604 103.8821,193.0334 105.4711,193.4804 C107.0651,193.9294 107.9951,195.5864 107.5461,197.1804 L99.6751,225.1504 C99.3031,226.4734 98.0991,227.3384 96.7891,227.3384" id="Fill-19" fill="#EDC75F" sketch:type="MSShapeGroup"></path>
                    <path d="M112.0859,231.644 C110.7699,231.644 109.5629,230.771 109.1949,229.44 L105.1099,214.618 C104.6709,213.021 105.6079,211.369 107.2059,210.929 C108.8019,210.486 110.4539,211.427 110.8959,213.024 L114.9809,227.846 C115.4199,229.443 114.4819,231.095 112.8849,231.535 C112.6179,231.609 112.3499,231.644 112.0859,231.644" id="Fill-21" fill="#EDC75F" sketch:type="MSShapeGroup"></path>
                    <path d="M110.1514,217.1196 C109.1724,217.1196 108.1774,216.9876 107.1904,216.7086 L99.5404,214.5566 C97.9454,214.1076 97.0154,212.4506 97.4644,210.8556 C97.9134,209.2606 99.5794,208.3316 101.1654,208.7806 L108.8154,210.9336 C111.4394,211.6726 114.1794,210.1366 114.9184,207.5106 C115.6564,204.8856 114.1214,202.1476 111.4964,201.4086 C110.2224,201.0526 108.8894,201.2106 107.7354,201.8556 C106.5834,202.5026 105.7524,203.5586 105.3934,204.8306 C104.9454,206.4276 103.2874,207.3566 101.6934,206.9066 C100.0984,206.4576 99.1694,204.8016 99.6184,203.2056 C100.4104,200.3906 102.2504,198.0536 104.8004,196.6226 C107.3504,195.1926 110.3044,194.8396 113.1214,195.6336 C118.9314,197.2686 122.3284,203.3256 120.6934,209.1366 C119.3364,213.9586 114.9314,217.1196 110.1514,217.1196" id="Fill-23" fill="#EDC75F" sketch:type="MSShapeGroup"></path>
                    <path d="M179.4521,500.8467 L147.9171,500.8467 L176.0021,431.6107 L198.3081,486.6017 C199.1391,488.6497 198.1521,490.9817 196.1051,491.8127 C194.0601,492.6417 191.7251,491.6577 190.8941,489.6097 L176.0021,452.8937 L159.7961,492.8467 L179.4521,492.8467 C181.6611,492.8467 183.4521,494.6377 183.4521,496.8467 C183.4521,499.0557 181.6611,500.8467 179.4521,500.8467" id="Fill-25" fill="#ED9F5F" sketch:type="MSShapeGroup"></path>
                    <path d="M197.7002,513.7422 C196.3132,513.7422 194.9662,513.0202 194.2262,511.7312 C193.1272,509.8142 193.7902,507.3702 195.7062,506.2712 L219.3492,492.7122 C221.8872,491.2462 225.5462,487.5302 223.1002,482.9362 C222.2462,481.3322 221.2382,480.8872 220.5542,480.6912 C218.7152,480.1612 215.9372,480.7752 213.3162,482.2892 L189.6622,495.8542 C187.7442,496.9552 185.3032,496.2922 184.2022,494.3752 C183.1022,492.4582 183.7652,490.0132 185.6812,488.9152 L209.3252,475.3552 C213.8832,472.7232 218.7792,471.8632 222.7562,473.0002 C225.9322,473.9092 228.4932,476.0452 230.1612,479.1762 C234.5812,487.4752 230.0752,495.7552 223.3412,499.6452 L199.6862,513.2112 C199.0582,513.5712 198.3752,513.7422 197.7002,513.7422" id="Fill-27" fill="#FFFFFF" sketch:type="MSShapeGroup"></path>
                    <g id="Group-31">
                        <mask id="mask-2" sketch:name="Clip 30" fill="white">
                            <use xlink:href="#path-1"></use>
                        </mask>
                        <g id="Clip-30"></g>
                        <path d="M192.4277,494.9863 C189.1147,494.9863 186.4197,497.6803 186.4197,500.9933 C186.4197,504.3053 189.1147,507.0003 192.4277,507.0003 C195.7407,507.0003 198.4347,504.3053 198.4347,500.9933 C198.4347,497.6803 195.7407,494.9863 192.4277,494.9863 M192.4277,515.0003 C184.7037,515.0003 178.4197,508.7163 178.4197,500.9933 C178.4197,493.2693 184.7037,486.9863 192.4277,486.9863 C200.1517,486.9863 206.4347,493.2693 206.4347,500.9933 C206.4347,508.7163 200.1517,515.0003 192.4277,515.0003" id="Fill-29" fill="#FFFFFF" sketch:type="MSShapeGroup" mask="url(#mask-2)"></path>
                    </g>
                    <path d="M29,421.3701 C17.617,421.3701 8,437.8131 8,457.2761 C8,476.7391 17.617,493.1821 29,493.1821 C40.383,493.1821 50,476.7391 50,457.2761 C50,437.8131 40.383,421.3701 29,421.3701 M29,501.1821 C12.738,501.1821 0,481.8961 0,457.2761 C0,432.6561 12.738,413.3701 29,413.3701 C45.262,413.3701 58,432.6561 58,457.2761 C58,481.8961 45.262,501.1821 29,501.1821" id="Fill-32" fill="#FFFFFF" sketch:type="MSShapeGroup"></path>
                    <path d="M264.7607,501.1816 C262.5517,501.1816 260.7607,499.3906 260.7607,497.1816 C260.7607,494.9726 262.5517,493.1816 264.7607,493.1816 C276.1437,493.1816 285.7607,476.7396 285.7607,457.2766 C285.7607,437.8136 276.1437,421.3696 264.7607,421.3696 C262.5517,421.3696 260.7607,419.5786 260.7607,417.3696 C260.7607,415.1606 262.5517,413.3696 264.7607,413.3696 C281.0227,413.3696 293.7607,432.6566 293.7607,457.2766 C293.7607,481.8966 281.0227,501.1816 264.7607,501.1816" id="Fill-34" fill="#FFFFFF" sketch:type="MSShapeGroup"></path>
                    <path d="M47.418,413.0361 L153.329,413.0361 L100.373,291.1291 L47.418,413.0361 Z M165.526,421.0361 L35.221,421.0361 L100.373,271.0501 L165.526,421.0361 Z" id="Fill-36" fill="#DC5346" sketch:type="MSShapeGroup"></path>
                </g>
            </g>
        </g>
    </g>
</svg>